# xmcd CD database file
#
# Track frame offsets:
#	182
#	25610
#	43372
#	67535
#	95972
#	131847
#	157167
#	184910
#	192767
#	221860
#	248860
#
# Disc length: 3525 seconds
#
# Revision: 1
# Processed by: cddbd v1.5.2PL0 Copyright (c) Steve Scherf et al.
# Submitted via: CDex 1.51
#
DISCID=a40dc30b
DTITLE=Andy Laverne Trio - Another World
DYEAR=1977
DGENRE=Jazz
TTITLE0=Spiral
TTITLE1=Another World
TTITLE2=Tallboys
TTITLE3=Arizona
TTITLE4=Cream Puff
TTITLE5=Utah
TTITLE6=Straight For Life
TTITLE7=Fleur De Lys
TTITLE8=Arizona  ( take 2)
TTITLE9=Straight For Life ( take 1)
TTITLE10=Another World ( take 1)
EXTD=YEAR: 1977
EXTT0=
EXTT1=
EXTT2=
EXTT3=
EXTT4=
EXTT5=
EXTT6=
EXTT7=
EXTT8=
EXTT9=
EXTT10=
PLAYORDER=
